<?xml version="1.0" encoding="utf-8"?>
<!-- Generator: Adobe Illustrator 19.2.1, SVG Export Plug-In . SVG Version: 6.00 Build 0)  -->
<svg version="1.1" id="Layer_1" xmlns="http://www.w3.org/2000/svg" xmlns:xlink="http://www.w3.org/1999/xlink" x="0px" y="0px"
	 width="1974.8px" height="350px" viewBox="0 0 1974.8 350" style="enable-background:new 0 0 1974.8 350;" xml:space="preserve">
<style type="text/css">
	.st0{fill:#F5F5F5;}
	.st1{fill:#6EABDD;}
	.st2{fill:#4D90BC;}
	.st3{fill:#CD5B59;}
	.st4{fill:#E6E6E6;}
	.st5{fill:#102C46;}
	.st6{fill:#3F649A;}
	.st7{fill:#AECEA6;}
	.st8{fill:#FFFFFF;}
	.st9{fill:#75BC7F;}
	.st10{fill:#4FA35F;}
	.st11{fill:#00963A;}
	.st12{fill:#FFE3A1;}
	.st13{fill:#FFD25D;}
	.st14{fill:#EBB921;}
	.st15{fill:#BCD5F0;}
	.st16{fill:#6AA35D;}
	.st17{fill:#754C24;}
	.st18{fill:none;stroke:#FFFFFF;stroke-miterlimit:10;stroke-dasharray:3;}
	.st19{fill:none;}
</style>
<g>
	<g id="BACKGROUND">
		<rect id="XMLID_623_" y="235.3" class="st0" width="1974.8" height="114.7"/>
	</g>
	<rect id="XMLID_620_" x="1150.1" y="262.7" class="st1" width="42.3" height="10.4"/>
	<rect id="XMLID_36_" x="1224.3" y="246.6" class="st2" width="69.2" height="26.8"/>
	<rect id="XMLID_618_" x="1290.5" y="76.5" class="st2" width="33.3" height="196.9"/>
	<g id="XMLID_613_">
		<path id="XMLID_617_" class="st2" d="M1011.1,95.9c0-42.1-68.6-41.3-68.6,0V242h68.6V95.9z"/>
		<path id="XMLID_616_" class="st2" d="M979.1,13.9c0-17.1-4.3-17-4.3,0v36.8h4.3V13.9z"/>
		<path id="XMLID_615_" class="st2" d="M985.7,52.6c0-17.1-17.7-17-17.7,0v36.8h17.7V52.6z"/>
	</g>
	<rect id="XMLID_612_" x="1318.3" y="194.1" class="st2" width="42.8" height="79.3"/>
	<polygon id="XMLID_611_" class="st2" points="836.6,261.9 823.3,261.9 823.3,103.7 819.4,103.7 819.4,87 825.9,87 825.9,72.9 
		822.9,72.9 822.9,64.7 826.3,64.7 826.3,57 833.6,57 833.6,64.7 837,64.7 837,72.9 834,72.9 834,87 840.4,87 840.4,103.7 
		836.6,103.7 	"/>
	<path id="XMLID_610_" class="st2" d="M1395.7,273.4h-41.5v-88c0-100.5,41.5-104.5,41.5,0V273.4z"/>
	<path id="XMLID_609_" class="st2" d="M1022.9,267.1h29.3h29.3V158.9v-10.5v-8.5l-1.5-1.2v-6.4l-2.5-2.1v-7.8c0-0.4-0.3-0.7-0.7-0.7
		l0,0c-0.4,0-0.7,0.3-0.7,0.7v7.8l-2.5,2.1v6.4l-1.5,1.2v0.7l-14.3-12v-11.5l-1.8-1.5v-7.7l-2.9-2.4v-7.6c0-0.5-0.4-0.9-0.9-0.9l0,0
		l0,0l0,0l0,0l0,0c-0.5,0-0.9,0.4-0.9,0.9v7.5l-2.9,2.4v7.7l-1.8,1.5v11.5l-14.3,12v-0.7l-1.5-1.2v-6.4l-2.5-2.1v-7.8
		c0-0.4-0.3-0.7-0.8-0.7l0,0c-0.4,0-0.7,0.3-0.7,0.7v7.8l-2.5,2.1v6.4l-1.5,1.2v8.5v10.6v108.2H1022.9z"/>
	<polygon id="XMLID_568_" class="st2" points="848.5,242.4 836.6,242.4 836.6,176.2 807.1,176.2 807.1,109.5 791.7,109.5 
		791.7,86.4 772.8,86.4 772.8,72.9 741.5,72.9 741.5,82.3 729.1,82.3 719.7,92.3 697.2,92.3 671.8,92.3 671.8,272 848.5,272 	"/>
	<rect id="XMLID_567_" x="802.4" y="74.6" class="st2" width="46.5" height="141"/>
	<path id="XMLID_564_" class="st2" d="M1479.6,237.9h-60.2v36.4l60.2,0.3V237.9z"/>
	<g id="XMLID_552_">
		<path id="XMLID_561_" class="st2" d="M1353.7,220.6h19c14-5.7,27.3-13.4,39.3-22.6c2.9-2.3,5.8-4.6,8.6-7.1v-8.5
			c-17,16-37.3,28.3-59.4,35.8C1358.7,219.1,1356.2,219.8,1353.7,220.6L1353.7,220.6z"/>
		<path id="XMLID_553_" class="st2" d="M1566.3,222.8c-0.7-0.4-21.7-12.6-27.8-16.7c-9.7-6.6-18.9-13.7-27.3-21.9c-2-2-4-4-6-6.1
			c-10-10.8-18.6-22.8-25.6-35.8v-12.1h-7.5v10.4h-5.6v-2.4c0-0.6-0.2-1-0.5-1.3c-0.8-0.8-2.3-0.8-3,0c-0.3,0.3-0.5,0.8-0.5,1.3v2.4
			H1451v-2.4c0-0.6-0.2-1-0.5-1.3c-0.8-0.8-2.3-0.8-3,0c-0.3,0.3-0.5,0.8-0.5,1.3v2.4h-11.5v-2.4c0-0.6-0.2-1-0.5-1.3
			c-0.8-0.8-2.3-0.8-3,0c-0.3,0.3-0.5,0.8-0.5,1.3v2.4h-4.3c-0.1-0.1-0.1-0.1-0.2-0.2v-10.2h-7.5v16.5c-0.2,0.3-0.4,0.6-0.6,0.8
			c-9.1,12.1-19.2,23.4-30.1,33.8c-10.2,9.1-21.2,17.3-32.5,25c-7.9,5.4-15.9,10.5-23.9,15.6c-1.4,0.9-2.3,2.5-2.3,4.2v7.6
			c0,2.8,2.2,5,5,5h229c2.8,0,5-2.2,5-5v-6.4C1568.9,225.3,1567.9,223.7,1566.3,222.8L1566.3,222.8z M1419.3,180.8v45.6h-82.5
			c0.1-0.1,0.7-0.5,1.3-0.8c0.3-0.2,0.5-0.3,0.7-0.4c16.1-10.3,32.1-20.9,46.9-33.1c7.1-5.9,13.9-12.1,20.3-18.8
			c4-4.2,7.8-8.7,11.4-13.3c0.6-0.8,1.3-1.6,1.9-2.5L1419.3,180.8L1419.3,180.8z M1463.8,226.3H1435v-50.1c0-2.9,0.9-5.7,2.4-7.9
			c8.3,8.2,17.1,15.9,26.4,23V226.3z M1463.8,183.4c-7.7-6.1-15-12.6-21.9-19.5c2.2-1.3,4.8-2.1,7.5-2.1c8,0,14.4,6.4,14.4,14.4
			V183.4z M1479.6,226.3v-24c10,6.5,20.5,12.1,31.7,16.2c9,3.3,18.4,5.7,27.7,7.8H1479.6z M1511.6,212c-6.1-2.3-12-5.1-17.7-8.3
			c-4.3-2.4-8.4-4.9-12.5-7.6c-0.6-0.4-1.3-0.8-1.9-1.3v-40.1c10.5,16.8,23.7,31.7,38.7,44.7c3.7,3.3,7.4,6.5,11.3,9.5
			c5.8,4.6,12,9,18.6,12.7c0.2,0.1,0.3,0.2,0.5,0.3C1536,219.4,1523.6,216.5,1511.6,212L1511.6,212z"/>
	</g>
	<path id="XMLID_535_" class="st3" d="M1137,242h-28.2V130.5v-7.7h0.7v-8.9h1.1l1.1-8.6l1.1,8.6h1.1v8.9h0.7v7.7h0.5
		c0-1.8,0.6-3.4,1.6-4.7c-0.1-0.4-0.1-0.8-0.1-1.2c0-3.1,2.3-5.7,5.3-6.2l1-7.8l1,7.8c3,0.5,5.3,3.1,5.3,6.2c0,0.4,0,0.8-0.1,1.2
		c1,1.3,1.6,3,1.6,4.7h0.5v-7.7h0.7v-8.9h1.1l1.1-8.6l1.1,8.6h1.1v8.9h0.7v7.7L1137,242L1137,242z"/>
	<rect id="XMLID_534_" x="1022.8" y="185.2" class="st4" width="58.8" height="87.7"/>
	<rect id="XMLID_533_" x="1063.8" y="170" class="st5" width="6.4" height="15.2"/>
	<rect id="XMLID_532_" x="1057.3" y="164.9" class="st5" width="4.2" height="20.3"/>
	<path id="XMLID_531_" class="st1" d="M1037.5,210.1h-7.7v-14.6c0-2.1,1.7-3.8,3.8-3.8l0,0c2.1,0,3.8,1.7,3.8,3.8L1037.5,210.1
		L1037.5,210.1z"/>
	<path id="XMLID_530_" class="st1" d="M1049.9,210.1h-7.7v-14.6c0-2.1,1.7-3.8,3.8-3.8l0,0c2.1,0,3.8,1.7,3.8,3.8L1049.9,210.1
		L1049.9,210.1z"/>
	<path id="XMLID_529_" class="st1" d="M1062.3,210.1h-7.7v-14.6c0-2.1,1.7-3.8,3.8-3.8l0,0c2.1,0,3.8,1.7,3.8,3.8L1062.3,210.1
		L1062.3,210.1z"/>
	<path id="XMLID_528_" class="st1" d="M1074.7,210.1h-7.7v-14.6c0-2.1,1.7-3.8,3.8-3.8l0,0c2.1,0,3.8,1.7,3.8,3.8L1074.7,210.1
		L1074.7,210.1z"/>
	<path id="XMLID_527_" class="st1" d="M1037.5,238.6h-7.7V224c0-2.1,1.7-3.8,3.8-3.8l0,0c2.1,0,3.8,1.7,3.8,3.8L1037.5,238.6
		L1037.5,238.6z"/>
	<path id="XMLID_526_" class="st1" d="M1049.9,238.6h-7.7V224c0-2.1,1.7-3.8,3.8-3.8l0,0c2.1,0,3.8,1.7,3.8,3.8L1049.9,238.6
		L1049.9,238.6z"/>
	<path id="XMLID_525_" class="st1" d="M1062.3,238.6h-7.7V224c0-2.1,1.7-3.8,3.8-3.8l0,0c2.1,0,3.8,1.7,3.8,3.8L1062.3,238.6
		L1062.3,238.6z"/>
	<path id="XMLID_524_" class="st1" d="M1074.7,238.6h-7.7V224c0-2.1,1.7-3.8,3.8-3.8l0,0c2.1,0,3.8,1.7,3.8,3.8L1074.7,238.6
		L1074.7,238.6z"/>
	<rect id="XMLID_523_" x="1021.2" y="263.2" class="st6" width="62.2" height="9.7"/>
	<rect id="XMLID_522_" x="1021.2" y="213.7" class="st6" width="62.2" height="2.9"/>
	<rect id="XMLID_521_" x="1021.2" y="183.7" class="st6" width="62.2" height="2.9"/>
	<rect id="XMLID_520_" x="1020" y="179" class="st6" width="64.6" height="5.6"/>
	<polygon id="XMLID_519_" class="st7" points="966.7,272.5 1002.1,272.5 1002.1,229.9 984.4,203.9 966.7,229.9 	"/>
	<polygon id="XMLID_518_" class="st8" points="917.7,272.5 953.1,272.5 953.1,229.9 935.4,203.9 917.7,229.9 	"/>
	<rect id="XMLID_517_" x="917.7" y="229.9" class="st9" width="48.9" height="42.7"/>
	<polygon id="XMLID_516_" class="st10" points="935.4,203.9 984.4,203.9 966.7,229.9 917.7,229.9 	"/>
	<polygon id="XMLID_515_" class="st11" points="963.7,229.9 966.7,229.9 984.4,203.9 981.4,203.9 	"/>
	<rect id="XMLID_514_" x="920.3" y="227" class="st11" width="46.1" height="2.9"/>
	<polygon id="XMLID_513_" class="st5" points="917.7,229.9 920.7,229.9 938.4,203.9 935.4,203.9 	"/>
	<path id="XMLID_512_" class="st5" d="M932.5,261.2h-9.6v-17.5c0-2.7,2.1-4.8,4.8-4.8l0,0c2.7,0,4.8,2.1,4.8,4.8V261.2z"/>
	<path id="XMLID_511_" class="st10" d="M961.5,261.2h-9.6v-17.5c0-2.7,2.1-4.8,4.8-4.8l0,0c2.7,0,4.8,2.1,4.8,4.8V261.2z"/>
	<path id="XMLID_510_" class="st10" d="M947,261.2h-9.6v-17.5c0-2.7,2.1-4.8,4.8-4.8l0,0c2.7,0,4.8,2.1,4.8,4.8V261.2z"/>
	<rect id="XMLID_509_" x="860.7" y="187.8" class="st8" width="81.6" height="84.7"/>
	<rect id="XMLID_508_" x="860.7" y="187.3" class="st12" width="81.6" height="85.3"/>
	<rect id="XMLID_507_" x="865.4" y="150.4" class="st13" width="72.2" height="32.7"/>
	<polygon id="XMLID_506_" class="st14" points="860.7,183.1 860.7,146.6 865.4,146.6 865.4,183.1 937.6,183.1 937.6,146.6 
		942.3,146.6 942.3,183.1 942.3,183.1 942.3,187.8 860.6,187.8 860.6,183.1 	"/>
	<rect id="XMLID_505_" x="911.3" y="140.8" class="st14" width="8.9" height="24.1"/>
	<path id="XMLID_504_" class="st13" d="M921.9,223.6h10.6v-20.3c0-2.9-2.4-5.3-5.3-5.3l0,0c-2.9,0-5.3,2.4-5.3,5.3V223.6z"/>
	<path id="XMLID_503_" class="st13" d="M904.7,223.6h10.6v-20.3c0-2.9-2.4-5.3-5.3-5.3l0,0c-2.9,0-5.3,2.4-5.3,5.3V223.6z"/>
	<path id="XMLID_502_" class="st13" d="M887.6,223.6h10.6v-20.3c0-2.9-2.4-5.3-5.3-5.3l0,0c-2.9,0-5.3,2.4-5.3,5.3V223.6z"/>
	<path id="XMLID_501_" class="st5" d="M870.4,223.6H881v-20.3c0-2.9-2.4-5.3-5.3-5.3l0,0c-2.9,0-5.3,2.4-5.3,5.3V223.6z"/>
	<path id="XMLID_500_" class="st13" d="M921.9,260.9h10.6v-20.3c0-2.9-2.4-5.3-5.3-5.3l0,0c-2.9,0-5.3,2.4-5.3,5.3V260.9z"/>
	<path id="XMLID_499_" class="st13" d="M904.7,260.9h10.6v-20.3c0-2.9-2.4-5.3-5.3-5.3l0,0c-2.9,0-5.3,2.4-5.3,5.3V260.9z"/>
	<path id="XMLID_498_" class="st13" d="M887.6,260.9h10.6v-20.3c0-2.9-2.4-5.3-5.3-5.3l0,0c-2.9,0-5.3,2.4-5.3,5.3V260.9z"/>
	<path id="XMLID_497_" class="st5" d="M870.4,260.9H881v-20.3c0-2.9-2.4-5.3-5.3-5.3l0,0c-2.9,0-5.3,2.4-5.3,5.3V260.9z"/>
	<polygon id="XMLID_496_" class="st7" points="848.7,272.5 884.1,272.5 884.1,202.1 866.4,176.2 848.7,202.1 	"/>
	<polygon id="XMLID_495_" class="st8" points="799.8,272.5 835.2,272.5 835.2,202.1 817.5,176.2 799.8,202.1 	"/>
	<rect id="XMLID_494_" x="799.8" y="202.1" class="st9" width="48.9" height="70.4"/>
	<polygon id="XMLID_493_" class="st10" points="817.5,176.2 866.4,176.2 848.7,202.1 799.8,202.1 	"/>
	<rect id="XMLID_492_" x="821.6" y="171" class="st11" width="4" height="20.3"/>
	<rect id="XMLID_491_" x="829.3" y="171" class="st11" width="4" height="20.3"/>
	<polygon id="XMLID_490_" class="st11" points="845.8,202.1 848.7,202.1 866.4,176.2 863.5,176.2 	"/>
	<rect id="XMLID_489_" x="802.3" y="199.2" class="st11" width="46.1" height="2.9"/>
	<polygon id="XMLID_488_" class="st11" points="799.8,202.1 802.7,202.1 820.4,176.2 817.5,176.2 	"/>
	<path id="XMLID_487_" class="st10" d="M818.4,265.2h-9.6v-17.5c0-2.7,2.1-4.8,4.8-4.8l0,0c2.7,0,4.8,2.1,4.8,4.8V265.2z"/>
	<path id="XMLID_486_" class="st10" d="M839.7,265.2h-9.6v-17.5c0-2.7,2.1-4.8,4.8-4.8l0,0c2.7,0,4.8,2.1,4.8,4.8V265.2z"/>
	<path id="XMLID_485_" class="st10" d="M818.4,233.5h-9.6v-17.6c0-2.7,2.1-4.8,4.8-4.8l0,0c2.7,0,4.8,2.1,4.8,4.8V233.5z"/>
	<path id="XMLID_484_" class="st10" d="M839.7,233.5h-9.6v-17.6c0-2.7,2.1-4.8,4.8-4.8l0,0c2.7,0,4.8,2.1,4.8,4.8V233.5z"/>
	<rect id="XMLID_483_" x="729.2" y="150.8" class="st12" width="81.6" height="121.7"/>
	<rect id="XMLID_482_" x="736.7" y="116.7" class="st13" width="72.2" height="32.7"/>
	<polygon id="XMLID_481_" class="st14" points="813.7,148.9 813.7,112.4 809,112.4 809,148.9 736.7,148.9 736.7,112.4 732,112.4 
		732,148.9 732,148.9 732,153.6 813.7,153.6 	"/>
	<rect id="XMLID_480_" x="783.7" y="106.6" class="st14" width="8.9" height="24.1"/>
	<path id="XMLID_479_" class="st13" d="M749.6,186.6H739v-20.3c0-2.9,2.4-5.3,5.3-5.3l0,0c2.9,0,5.3,2.4,5.3,5.3V186.6z"/>
	<path id="XMLID_478_" class="st13" d="M766.8,186.6h-10.6v-20.3c0-2.9,2.4-5.3,5.3-5.3l0,0c2.9,0,5.3,2.4,5.3,5.3V186.6z"/>
	<path id="XMLID_477_" class="st13" d="M783.9,186.6h-10.6v-20.3c0-2.9,2.4-5.3,5.3-5.3l0,0c2.9,0,5.3,2.4,5.3,5.3V186.6z"/>
	<path id="XMLID_475_" class="st13" d="M801.1,186.6h-10.6v-20.3c0-2.9,2.4-5.3,5.3-5.3l0,0c2.9,0,5.3,2.4,5.3,5.3V186.6z"/>
	<path id="XMLID_474_" class="st13" d="M749.6,223.8H739v-20.3c0-2.9,2.4-5.3,5.3-5.3l0,0c2.9,0,5.3,2.4,5.3,5.3V223.8z"/>
	<path id="XMLID_473_" class="st13" d="M766.8,223.8h-10.6v-20.3c0-2.9,2.4-5.3,5.3-5.3l0,0c2.9,0,5.3,2.4,5.3,5.3V223.8z"/>
	<path id="XMLID_472_" class="st13" d="M783.9,223.8h-10.6v-20.3c0-2.9,2.4-5.3,5.3-5.3l0,0c2.9,0,5.3,2.4,5.3,5.3V223.8z"/>
	<path id="XMLID_471_" class="st13" d="M801.1,223.8h-10.6v-20.3c0-2.9,2.4-5.3,5.3-5.3l0,0c2.9,0,5.3,2.4,5.3,5.3V223.8z"/>
	<rect id="XMLID_470_" x="738.9" y="235.5" class="st13" width="10.6" height="20.3"/>
	<rect id="XMLID_469_" x="756.1" y="235.5" class="st13" width="10.6" height="20.3"/>
	<rect id="XMLID_468_" x="773.3" y="235.5" class="st13" width="10.6" height="20.3"/>
	<rect id="XMLID_467_" x="790.5" y="235.5" class="st13" width="10.6" height="20.3"/>
	<rect id="XMLID_466_" x="653.3" y="151.5" class="st4" width="81.2" height="121"/>
	<rect id="XMLID_465_" x="709.9" y="130.5" class="st5" width="8.8" height="20.9"/>
	<rect id="XMLID_464_" x="700.9" y="123.5" class="st5" width="5.8" height="28"/>
	<path id="XMLID_463_" class="st1" d="M673.6,185.9H663v-20.2c0-2.9,2.4-5.3,5.3-5.3l0,0c2.9,0,5.3,2.4,5.3,5.3V185.9z"/>
	<path id="XMLID_462_" class="st1" d="M690.7,185.9h-10.6v-20.2c0-2.9,2.4-5.3,5.3-5.3l0,0c2.9,0,5.3,2.4,5.3,5.3V185.9z"/>
	<path id="XMLID_461_" class="st1" d="M707.8,185.9h-10.6v-20.2c0-2.9,2.4-5.3,5.3-5.3l0,0c2.9,0,5.3,2.4,5.3,5.3V185.9z"/>
	<path id="XMLID_460_" class="st1" d="M724.9,185.9h-10.6v-20.2c0-2.9,2.4-5.3,5.3-5.3l0,0c2.9,0,5.3,2.4,5.3,5.3V185.9z"/>
	<path id="XMLID_459_" class="st1" d="M673.6,225.2H663V205c0-2.9,2.4-5.3,5.3-5.3l0,0c2.9,0,5.3,2.4,5.3,5.3V225.2z"/>
	<path id="XMLID_458_" class="st1" d="M690.7,225.2h-10.6V205c0-2.9,2.4-5.3,5.3-5.3l0,0c2.9,0,5.3,2.4,5.3,5.3V225.2z"/>
	<path id="XMLID_457_" class="st1" d="M707.8,225.2h-10.6V205c0-2.9,2.4-5.3,5.3-5.3l0,0c2.9,0,5.3,2.4,5.3,5.3V225.2z"/>
	<path id="XMLID_456_" class="st1" d="M724.9,225.2h-10.6V205c0-2.9,2.4-5.3,5.3-5.3l0,0c2.9,0,5.3,2.4,5.3,5.3V225.2z"/>
	<rect id="XMLID_455_" x="663" y="235.7" class="st1" width="61.8" height="20.2"/>
	<rect id="XMLID_454_" x="651" y="190.8" class="st6" width="85.9" height="4.1"/>
	<rect id="XMLID_453_" x="651" y="149.5" class="st6" width="85.9" height="4.1"/>
	<rect id="XMLID_452_" x="649.4" y="143" class="st6" width="89.1" height="7.7"/>
	<rect id="XMLID_451_" x="658.1" y="231.6" class="st6" width="71.7" height="15.3"/>
	<rect id="XMLID_450_" x="399.8" y="150.8" class="st1" width="81.6" height="121.7"/>
	<rect id="XMLID_449_" x="404.5" y="113.4" class="st6" width="72.2" height="32.7"/>
	<polygon id="XMLID_448_" class="st5" points="399.8,146.1 399.8,109.6 404.5,109.6 404.5,146.1 476.7,146.1 476.7,109.6 
		481.4,109.6 481.4,146.1 481.4,146.1 481.4,150.8 399.8,150.8 	"/>
	<rect id="XMLID_447_" x="420.9" y="103.8" class="st5" width="8.9" height="24.1"/>
	<path id="XMLID_445_" class="st6" d="M443.9,186.6h10.6v-20.3c0-2.9-2.4-5.3-5.3-5.3l0,0c-2.9,0-5.3,2.4-5.3,5.3L443.9,186.6
		L443.9,186.6z"/>
	<path id="XMLID_444_" class="st6" d="M426.7,186.6h10.6v-20.3c0-2.9-2.4-5.3-5.3-5.3l0,0c-2.9,0-5.3,2.4-5.3,5.3L426.7,186.6
		L426.7,186.6z"/>
	<path id="XMLID_443_" class="st6" d="M409.5,186.6h10.6v-20.3c0-2.9-2.4-5.3-5.3-5.3l0,0c-2.9,0-5.3,2.4-5.3,5.3L409.5,186.6
		L409.5,186.6z"/>
	<path id="XMLID_441_" class="st6" d="M443.9,223.8h10.6v-20.3c0-2.9-2.4-5.3-5.3-5.3l0,0c-2.9,0-5.3,2.4-5.3,5.3L443.9,223.8
		L443.9,223.8z"/>
	<path id="XMLID_440_" class="st6" d="M426.7,223.8h10.6v-20.3c0-2.9-2.4-5.3-5.3-5.3l0,0c-2.9,0-5.3,2.4-5.3,5.3L426.7,223.8
		L426.7,223.8z"/>
	<path id="XMLID_439_" class="st6" d="M409.5,223.8h10.6v-20.3c0-2.9-2.4-5.3-5.3-5.3l0,0c-2.9,0-5.3,2.4-5.3,5.3L409.5,223.8
		L409.5,223.8z"/>
	<path id="XMLID_437_" class="st6" d="M443.9,261.1h10.6v-20.2c0-2.9-2.4-5.3-5.3-5.3l0,0c-2.9,0-5.3,2.4-5.3,5.3L443.9,261.1
		L443.9,261.1z"/>
	<path id="XMLID_436_" class="st6" d="M426.7,261.1h10.6v-20.2c0-2.9-2.4-5.3-5.3-5.3l0,0c-2.9,0-5.3,2.4-5.3,5.3L426.7,261.1
		L426.7,261.1z"/>
	<path id="XMLID_435_" class="st6" d="M409.5,261.1h10.6v-20.2c0-2.9-2.4-5.3-5.3-5.3l0,0c-2.9,0-5.3,2.4-5.3,5.3L409.5,261.1
		L409.5,261.1z"/>
	<rect id="XMLID_434_" x="261.6" y="213.8" class="st12" width="81.6" height="58.7"/>
	<rect id="XMLID_433_" x="266.3" y="176.4" class="st13" width="72.2" height="32.7"/>
	<polygon id="XMLID_432_" class="st14" points="261.6,209.1 261.6,172.6 266.3,172.6 266.3,209.1 338.6,209.1 338.6,172.6 
		343.3,172.6 343.3,209.1 343.3,209.1 343.3,213.8 261.6,213.8 	"/>
	<rect id="XMLID_431_" x="282.8" y="166.8" class="st14" width="8.9" height="24.1"/>
	<path id="XMLID_430_" class="st5" d="M322.9,250.2h10.6v-20.3c0-2.9-2.4-5.3-5.3-5.3l0,0c-2.9,0-5.3,2.4-5.3,5.3L322.9,250.2
		L322.9,250.2z"/>
	<path id="XMLID_429_" class="st13" d="M305.7,250.2h10.6v-20.3c0-2.9-2.4-5.3-5.3-5.3l0,0c-2.9,0-5.3,2.4-5.3,5.3L305.7,250.2
		L305.7,250.2z"/>
	<path id="XMLID_428_" class="st13" d="M288.5,250.2h10.6v-20.3c0-2.9-2.4-5.3-5.3-5.3l0,0c-2.9,0-5.3,2.4-5.3,5.3L288.5,250.2
		L288.5,250.2z"/>
	<path id="XMLID_427_" class="st13" d="M271.4,250.2H282v-20.3c0-2.9-2.4-5.3-5.3-5.3l0,0c-2.9,0-5.3,2.4-5.3,5.3L271.4,250.2
		L271.4,250.2z"/>
	<polygon id="XMLID_426_" class="st9" points="542.7,150.8 542.7,114.2 461.1,114.2 461.1,235.9 461.1,235.9 461.1,272.5 
		542.7,272.5 	"/>
	<rect id="XMLID_425_" x="470.8" y="235.5" class="st10" width="10.6" height="20.3"/>
	<rect id="XMLID_424_" x="488" y="235.5" class="st10" width="10.6" height="20.3"/>
	<rect id="XMLID_423_" x="505.2" y="235.5" class="st10" width="10.6" height="20.3"/>
	<rect id="XMLID_422_" x="522.3" y="235.5" class="st10" width="10.6" height="20.3"/>
	<rect id="XMLID_421_" x="465.8" y="76.7" class="st10" width="72.2" height="32.7"/>
	<polygon id="XMLID_420_" class="st11" points="461.1,109.5 461.1,73 465.8,73 465.8,109.5 538,109.5 538,73 542.7,73 542.7,109.5 
		542.7,109.5 542.7,114.2 461.1,114.2 	"/>
	<rect id="XMLID_419_" x="515.2" y="67.1" class="st11" width="4.4" height="24.1"/>
	<rect id="XMLID_418_" x="523.2" y="67.1" class="st11" width="4.4" height="24.1"/>
	<path id="XMLID_417_" class="st10" d="M522.3,149.9h10.6v-20.3c0-2.9-2.4-5.3-5.3-5.3l0,0c-2.9,0-5.3,2.4-5.3,5.3V149.9z"/>
	<path id="XMLID_416_" class="st10" d="M505.2,149.9h10.6v-20.3c0-2.9-2.4-5.3-5.3-5.3l0,0c-2.9,0-5.3,2.4-5.3,5.3L505.2,149.9
		L505.2,149.9z"/>
	<path id="XMLID_415_" class="st10" d="M488,149.9h10.6v-20.3c0-2.9-2.4-5.3-5.3-5.3l0,0c-2.9,0-5.3,2.4-5.3,5.3L488,149.9
		L488,149.9z"/>
	<path id="XMLID_414_" class="st10" d="M470.8,149.9h10.6v-20.3c0-2.9-2.4-5.3-5.3-5.3l0,0c-2.9,0-5.3,2.4-5.3,5.3L470.8,149.9
		L470.8,149.9z"/>
	<path id="XMLID_413_" class="st10" d="M522.3,187.2h10.6v-20.3c0-2.9-2.4-5.3-5.3-5.3l0,0c-2.9,0-5.3,2.4-5.3,5.3V187.2z"/>
	<path id="XMLID_412_" class="st10" d="M505.2,187.2h10.6v-20.3c0-2.9-2.4-5.3-5.3-5.3l0,0c-2.9,0-5.3,2.4-5.3,5.3L505.2,187.2
		L505.2,187.2z"/>
	<path id="XMLID_411_" class="st10" d="M488,187.2h10.6v-20.3c0-2.9-2.4-5.3-5.3-5.3l0,0c-2.9,0-5.3,2.4-5.3,5.3L488,187.2
		L488,187.2z"/>
	<path id="XMLID_410_" class="st10" d="M470.8,187.2h10.6v-20.3c0-2.9-2.4-5.3-5.3-5.3l0,0c-2.9,0-5.3,2.4-5.3,5.3L470.8,187.2
		L470.8,187.2z"/>
	<polygon id="XMLID_409_" class="st8" points="375.6,272.5 414.8,272.5 414.8,189.9 395.2,161.2 375.6,189.9 	"/>
	<polygon id="XMLID_408_" class="st8" points="321.4,272.5 360.6,272.5 360.6,189.9 341,161.2 321.4,189.9 	"/>
	<rect id="XMLID_407_" x="321.4" y="189.9" class="st4" width="54.2" height="82.6"/>
	<polygon id="XMLID_406_" class="st1" points="341,161.2 395.2,161.2 375.6,189.9 321.4,189.9 	"/>
	<rect id="XMLID_405_" x="345.6" y="155.5" class="st6" width="4.5" height="22.5"/>
	<rect id="XMLID_404_" x="354.1" y="155.5" class="st6" width="4.5" height="22.5"/>
	<rect id="XMLID_403_" x="357.3" y="240.5" class="st1" width="7.9" height="22.8"/>
	<rect id="XMLID_402_" x="344.6" y="240.5" class="st1" width="7.9" height="22.8"/>
	<rect id="XMLID_401_" x="331.8" y="240.5" class="st1" width="7.9" height="22.8"/>
	<rect id="XMLID_400_" x="357.3" y="199.2" class="st1" width="7.9" height="22.8"/>
	<rect id="XMLID_399_" x="344.6" y="199.2" class="st1" width="7.9" height="22.8"/>
	<rect id="XMLID_398_" x="331.8" y="199.2" class="st1" width="7.9" height="22.8"/>
	<polygon id="XMLID_397_" class="st6" points="372.4,189.9 375.6,189.9 395.2,161.2 392,161.2 	"/>
	<rect id="XMLID_396_" x="324.2" y="186.8" class="st6" width="51.1" height="3.2"/>
	<polygon id="XMLID_395_" class="st6" points="321.4,189.9 324.7,189.9 344.3,161.2 341,161.2 	"/>
	<circle id="XMLID_394_" class="st1" cx="395.2" cy="185.8" r="4.2"/>
	<rect id="XMLID_393_" x="1073.8" y="84.2" class="st1" width="84.6" height="188.4"/>
	<g id="XMLID_387_">
		<rect id="XMLID_392_" x="1112.1" y="96.3" class="st6" width="7.9" height="22.8"/>
		<rect id="XMLID_391_" x="1098.7" y="96.3" class="st6" width="7.9" height="22.8"/>
		<rect id="XMLID_390_" x="1085.2" y="96.3" class="st6" width="7.9" height="22.8"/>
		<rect id="XMLID_389_" x="1125.5" y="96.3" class="st6" width="7.9" height="22.8"/>
		<rect id="XMLID_388_" x="1139" y="96.3" class="st6" width="7.9" height="22.8"/>
	</g>
	<g id="XMLID_381_">
		<rect id="XMLID_386_" x="1112.1" y="129.4" class="st6" width="7.9" height="22.8"/>
		<rect id="XMLID_385_" x="1098.7" y="129.4" class="st6" width="7.9" height="22.8"/>
		<rect id="XMLID_384_" x="1085.2" y="129.4" class="st6" width="7.9" height="22.8"/>
		<rect id="XMLID_383_" x="1125.5" y="129.4" class="st6" width="7.9" height="22.8"/>
		<rect id="XMLID_382_" x="1139" y="129.4" class="st6" width="7.9" height="22.8"/>
	</g>
	<g id="XMLID_375_">
		<rect id="XMLID_380_" x="1112.1" y="163.2" class="st6" width="7.9" height="22.8"/>
		<rect id="XMLID_379_" x="1098.7" y="163.2" class="st6" width="7.9" height="22.8"/>
		<rect id="XMLID_378_" x="1085.2" y="163.2" class="st6" width="7.9" height="22.8"/>
		<rect id="XMLID_377_" x="1125.5" y="163.2" class="st6" width="7.9" height="22.8"/>
		<rect id="XMLID_376_" x="1139" y="163.2" class="st6" width="7.9" height="22.8"/>
	</g>
	<g id="XMLID_369_">
		<rect id="XMLID_374_" x="1112.1" y="197.6" class="st6" width="7.9" height="22.8"/>
		<rect id="XMLID_373_" x="1098.7" y="197.6" class="st6" width="7.9" height="22.8"/>
		<rect id="XMLID_372_" x="1085.2" y="197.6" class="st6" width="7.9" height="22.8"/>
		<rect id="XMLID_371_" x="1125.5" y="197.6" class="st6" width="7.9" height="22.8"/>
		<rect id="XMLID_370_" x="1139" y="197.6" class="st6" width="7.9" height="22.8"/>
	</g>
	<g id="XMLID_363_">
		<rect id="XMLID_368_" x="1112.1" y="229.5" class="st6" width="7.9" height="22.8"/>
		<rect id="XMLID_367_" x="1098.7" y="229.5" class="st6" width="7.9" height="22.8"/>
		<rect id="XMLID_366_" x="1085.2" y="229.5" class="st6" width="7.9" height="22.8"/>
		<rect id="XMLID_365_" x="1125.5" y="229.5" class="st6" width="7.9" height="22.8"/>
		<rect id="XMLID_364_" x="1139" y="229.5" class="st6" width="7.9" height="22.8"/>
	</g>
	<rect id="XMLID_350_" x="651" y="259.2" class="st6" width="83.5" height="13.3"/>
	<path id="XMLID_349_" class="st10" d="M520.7,221.1h10.6v-20.2c0-2.9-2.4-5.3-5.3-5.3l0,0c-2.9,0-5.3,2.4-5.3,5.3V221.1z"/>
	<path id="XMLID_348_" class="st10" d="M503.6,221.1h10.6v-20.2c0-2.9-2.4-5.3-5.3-5.3l0,0c-2.9,0-5.3,2.4-5.3,5.3V221.1z"/>
	<path id="XMLID_347_" class="st10" d="M486.4,221.1H497v-20.2c0-2.9-2.4-5.3-5.3-5.3l0,0c-2.9,0-5.3,2.4-5.3,5.3L486.4,221.1
		L486.4,221.1z"/>
	<path id="XMLID_346_" class="st10" d="M469.2,221.1h10.6v-20.2c0-2.9-2.4-5.3-5.3-5.3l0,0c-2.9,0-5.3,2.4-5.3,5.3L469.2,221.1
		L469.2,221.1z"/>
	<circle id="XMLID_345_" class="st8" cx="727.4" cy="246.8" r="2.4"/>
	<circle id="XMLID_344_" class="st15" cx="722.6" cy="246.8" r="2.4"/>
	<circle id="XMLID_343_" class="st8" cx="717.9" cy="246.8" r="2.4"/>
	<circle id="XMLID_342_" class="st15" cx="713.1" cy="246.8" r="2.4"/>
	<circle id="XMLID_341_" class="st8" cx="708.3" cy="246.8" r="2.4"/>
	<circle id="XMLID_340_" class="st15" cx="703.5" cy="246.8" r="2.4"/>
	<circle id="XMLID_339_" class="st8" cx="698.7" cy="246.8" r="2.4"/>
	<circle id="XMLID_338_" class="st15" cx="694" cy="246.8" r="2.4"/>
	<circle id="XMLID_337_" class="st8" cx="689.2" cy="246.8" r="2.4"/>
	<circle id="XMLID_336_" class="st15" cx="684.4" cy="246.8" r="2.4"/>
	<circle id="XMLID_335_" class="st8" cx="679.6" cy="246.8" r="2.4"/>
	<circle id="XMLID_334_" class="st15" cx="674.8" cy="246.8" r="2.4"/>
	<circle id="XMLID_333_" class="st8" cx="670.1" cy="246.8" r="2.4"/>
	<circle id="XMLID_326_" class="st15" cx="665.3" cy="246.8" r="2.4"/>
	<circle id="XMLID_325_" class="st8" cx="660.5" cy="246.8" r="2.4"/>
	<rect id="XMLID_324_" x="734.5" y="260.9" class="st14" width="76.4" height="11.7"/>
	<rect id="XMLID_323_" x="375.6" y="266.6" class="st1" width="39.2" height="5.9"/>
	<rect id="XMLID_322_" x="321.4" y="266.6" class="st6" width="54.2" height="5.9"/>
	<rect id="XMLID_321_" x="461.1" y="260.9" class="st10" width="81.3" height="11.7"/>
	<circle id="XMLID_320_" class="st16" cx="208.2" cy="227.3" r="20.6"/>
	<rect id="XMLID_319_" x="205.5" y="236.3" class="st17" width="5.5" height="36.3"/>
	<circle id="XMLID_318_" class="st16" cx="183.7" cy="234.4" r="17.4"/>
	<rect id="XMLID_317_" x="180.1" y="249.1" class="st17" width="3.5" height="23.4"/>
	<circle id="XMLID_316_" class="st16" cx="1795.8" cy="214.7" r="26"/>
	<rect id="XMLID_315_" x="1792.4" y="226" class="st17" width="6.9" height="45.7"/>
	<circle id="XMLID_314_" class="st16" cx="1764.9" cy="223.6" r="21.9"/>
	<rect id="XMLID_313_" x="1762" y="233.2" class="st17" width="5.8" height="38.5"/>
	<circle id="XMLID_312_" class="st16" cx="98.4" cy="241.9" r="15"/>
	<rect id="XMLID_311_" x="96.4" y="248.4" class="st17" width="4" height="26.4"/>
	<circle id="XMLID_310_" class="st16" cx="134" cy="247" r="12.7"/>
	<rect id="XMLID_309_" x="132.4" y="252.6" class="st17" width="3.4" height="22.3"/>
	<path id="XMLID_308_" class="st16" d="M348.5,260.8c-3.1,0-6,1.2-8.1,3.3c-2.8-4.4-7.7-7.4-13.3-7.4c-8.7,0-15.8,7.1-15.8,15.8
		h48.9C360.2,266.1,355,260.8,348.5,260.8z"/>
	<circle id="XMLID_307_" class="st16" cx="642.4" cy="243.3" r="13.3"/>
	<rect id="XMLID_306_" x="640.6" y="249.1" class="st17" width="3.5" height="23.4"/>
	<circle id="XMLID_305_" class="st16" cx="620.9" cy="237.8" r="15.8"/>
	<rect id="XMLID_304_" x="618.8" y="244.7" class="st17" width="4.2" height="27.8"/>
	<circle id="XMLID_303_" class="st16" cx="815.8" cy="243.3" r="13.3"/>
	<rect id="XMLID_302_" x="814" y="249.1" class="st17" width="3.5" height="23.4"/>
	<path id="XMLID_300_" class="st16" d="M843.1,262.7c-2.6,0-5,1-6.8,2.7c-2.3-3.7-6.5-6.2-11.2-6.2c-7.3,0-13.2,5.9-13.2,13.2h41
		C852.9,267.1,848.5,262.7,843.1,262.7z"/>
	<ellipse id="XMLID_299_" class="st16" cx="1009.6" cy="237.8" rx="15.8" ry="15.8"/>
	<rect id="XMLID_298_" x="1007.5" y="244.7" class="st17" width="4.2" height="27.8"/>
	<circle id="XMLID_297_" class="st16" cx="991.7" cy="243.3" r="13.3"/>
	<rect id="XMLID_296_" x="990" y="249.1" class="st17" width="3.5" height="23.4"/>
	<path id="XMLID_295_" class="st16" d="M995.9,263.5c2.6,0,5,1,6.8,2.7c2.3-3.7,6.5-6.2,11.2-6.2c7.3,0,13.2,5.9,13.2,13.2h-41
		C986.1,267.9,990.5,263.5,995.9,263.5z"/>
	<line id="XMLID_239_" class="st18" x1="284.8" y1="265.5" x2="392.9" y2="285.5"/>
	<path id="XMLID_237_" class="st5" d="M484.5,69.2l4.8-4.8l-1.1-1.1c-0.6,0.2-1.2,0.1-1.6-0.4c-0.6-0.6-0.6-1.6,0-2.3
		c0.6-0.6,1.6-0.6,2.3,0c0.4,0.4,0.6,1.1,0.4,1.6l1.1,1.1l4.8-4.8c0.2-0.2,0.4-0.3,0.6-0.2c0.2,0,0.5,0.1,0.6,0.3
		c2.3,3.1,2.3,7.3-0.2,10.3c-0.1,0.2-0.3,0.3-0.4,0.5c0,0-0.8,1.1-3,2s-5.8,0.7-8.1-1.1c-0.2-0.1-0.3-0.4-0.3-0.6
		C484.3,69.6,484.4,69.3,484.5,69.2z"/>
	<path id="XMLID_236_" class="st5" d="M489.1,77.5l5-7.1l0.1-0.1l0,0c0.1-0.1,0.3-0.1,0.4,0.1l5.6,7.1c0.1,0.1,0.1,0.3-0.1,0.4
		c-0.1,0-0.1,0.1-0.2,0.1s-0.2,0-0.2-0.1l-5.1-6.5v6.4c0,0.2-0.1,0.3-0.3,0.3c-0.2,0-0.3-0.1-0.3-0.3v-6.3l-4.5,6.5
		c-0.1,0.1-0.1,0.1-0.2,0.1s-0.1,0-0.2-0.1C489.1,77.8,489,77.6,489.1,77.5z"/>
	<g id="XMLID_187_">
		<g id="XMLID_188_">
			<path id="XMLID_192_" class="st8" d="M870.7,261.8c1.2,0,2.2-1,2.2-2.2s-1-2.2-2.2-2.2s-2.2,1-2.2,2.2S869.5,261.8,870.7,261.8
				L870.7,261.8z"/>
			<path id="XMLID_189_" class="st8" d="M875.2,268.4l-1.8-5.6c-0.1-0.3-0.4-0.5-0.7-0.5h-4c-0.3,0-0.6,0.2-0.7,0.5l-1.8,5.6
				c-0.1,0.2,0,0.3,0.1,0.5c0.1,0.1,0.2,0.2,0.4,0.2h0.5c0.3,0,0.6-0.2,0.7-0.5l0.5-1.6v8.2c0,0.6,0.5,1,1,1h0.1c0.6,0,1-0.5,1-1
				v-5.3h0.4v5.3c0,0.6,0.5,1,1,1h0.1c0.6,0,1-0.5,1-1V267l0.5,1.6c0.1,0.3,0.4,0.5,0.7,0.5h0.5c0.2,0,0.3-0.1,0.4-0.2
				C875.3,268.8,875.3,268.6,875.2,268.4L875.2,268.4z"/>
		</g>
	</g>
	<g id="XMLID_178_">
		<g id="XMLID_179_">
			<path id="XMLID_184_" class="st8" d="M281.9,257.4c0-1.4,1.1-2.5,2.5-2.5s2.5,1.1,2.5,2.5c0,1.4-1.1,2.5-2.5,2.5
				S281.9,258.8,281.9,257.4L281.9,257.4z"/>
			<path id="XMLID_180_" class="st8" d="M278.2,263.5c-0.5,0.1-0.9,0.5-0.9,1.1c0.1,0.5,0.5,0.9,1,0.9h0.1c1.9-0.2,3-0.8,3.8-1.4
				l-0.3,3.3c0,0.5,0.1,0.9,0.4,1.2c-0.7,1.1-1.9,3.2-3.6,6.9c-0.3,0.6,0,1.4,0.6,1.6c0.2,0.1,0.3,0.1,0.5,0.1
				c0.5,0,0.9-0.3,1.1-0.7c1.4-3.2,2.5-5.2,3.2-6.3c0.8,1.4,2.7,5.2,3.4,6.4c0.2,0.4,0.6,0.6,1,0.6c0.2,0,0.5,0,0.7-0.2
				c0.6-0.3,0.8-1.1,0.5-1.7c-0.8-1.3-2.9-5.2-3.7-6.6c0.3-0.3,0.4-0.6,0.5-1l0.3-3.5c0.6,0.9,1.3,1.9,1.7,3
				c0.1,0.3,0.4,0.6,0.8,0.6l1.5,2.6l1.2,2.2l1.7,3.1c-0.3,0.4-0.3,0.9,0.1,1.3c0.4,0.4,1,0.4,1.4,0c0.3-0.3,0.4-0.8,0.2-1.1
				l1.3-0.7c0.2-0.1,0.3-0.4,0.2-0.6l-3.2-5.7c-0.1-0.2-0.4-0.3-0.6-0.2l-1.7,1l-1.2-2.1c0.3-0.3,0.3-0.7,0.2-1
				c-1-2.6-3.1-4.8-3.8-5.6c-0.1-0.1-0.4-0.4-0.4-0.4c-0.6-0.4-1-0.5-1.3-0.5s-0.5,0-0.5,0c-0.4,0.1-0.8,0.2-1.1,0.5
				C282.6,260.8,280.4,263.3,278.2,263.5L278.2,263.5z M294.5,276.7c-0.2,0-0.3-0.2-0.4-0.4c0-0.2,0.2-0.4,0.4-0.4
				c0.2,0,0.4,0.2,0.4,0.4S294.7,276.7,294.5,276.7L294.5,276.7z"/>
		</g>
	</g>
	<g id="XMLID_170_">
		<g id="XMLID_171_">
			<path id="XMLID_175_" class="st8" d="M882.7,254.4c0,1.2-1,2.2-2.2,2.2s-2.2-1-2.2-2.2s1-2.2,2.2-2.2
				C881.7,252.1,882.7,253.1,882.7,254.4L882.7,254.4z"/>
			<path id="XMLID_172_" class="st8" d="M881.2,256.5c-0.6-0.1-1.2-0.1-1.7,0c-3.7,0.4-4.9,4.8-4.6,8c0.1,1.4,2.4,1.4,2.2,0
				c-0.1-1.2-0.1-3,0.6-4.3v4.7c0,0.1,0,0.1,0,0.2c0,0,0,0,0,0.1c0,3.7,0,7.4-0.2,11.2c-0.1,1.7,2.5,1.6,2.6,0
				c0.1-2.9,0.2-5.8,0.2-8.7c0.1,0,0.2,0,0.4,0c0,2.9,0,5.8,0.2,8.7c0.1,1.6,2.6,1.7,2.6,0c-0.2-3.7-0.2-7.4-0.2-11.2
				c0-0.1,0-0.2,0-0.3c0-1.6-0.1-3.2,0-4.8c0.8,1.3,0.8,3.3,0.7,4.5c-0.2,1.4,2.1,1.4,2.2,0C886.4,261.2,885.1,256.7,881.2,256.5
				L881.2,256.5z"/>
		</g>
	</g>
	<g id="XMLID_129_">
		<g id="XMLID_130_">
			<path id="XMLID_136_" class="st8" d="M1054.2,257.4c0,1.4-1.1,2.5-2.5,2.5s-2.5-1.1-2.5-2.5c0-1.4,1.1-2.5,2.5-2.5
				S1054.2,256,1054.2,257.4L1054.2,257.4z"/>
			<path id="XMLID_131_" class="st8" d="M1057.9,263.5c-2.2-0.2-4.4-2.7-5-3c-0.3-0.2-0.7-0.4-1.1-0.5c0,0-0.3-0.1-0.5,0
				c-0.3,0-0.7,0-1.3,0.5c0,0-0.3,0.3-0.4,0.4c-0.7,0.8-2.8,3-3.8,5.6c-0.1,0.4-0.1,0.8,0.2,1l-1.2,2.1l-1.7-1
				c-0.2-0.1-0.5,0-0.6,0.2l-3.2,5.7c-0.1,0.2,0,0.5,0.2,0.6l1.3,0.7c-0.2,0.4-0.2,0.8,0.2,1.1c0.4,0.4,1,0.4,1.4,0
				c0.4-0.3,0.4-0.9,0.1-1.3l1.7-3.1l1.2-2.2l1.5-2.6c0.3-0.1,0.6-0.3,0.8-0.6c0.4-1.1,1.1-2.1,1.7-3l0.3,3.5c0,0.4,0.2,0.8,0.5,1
				c-0.8,1.4-2.9,5.3-3.7,6.6c-0.3,0.6-0.1,1.4,0.5,1.7c0.2,0.1,0.5,0.2,0.7,0.2c0.4,0,0.8-0.2,1-0.6c0.7-1.2,2.6-5,3.4-6.4
				c0.7,1.1,1.8,3.1,3.2,6.3c0.2,0.5,0.7,0.7,1.1,0.7c0.2,0,0.3,0,0.5-0.1c0.6-0.3,0.9-1,0.6-1.6c-1.7-3.8-2.9-5.8-3.6-6.9
				c0.3-0.3,0.4-0.8,0.4-1.2l-0.3-3.3c0.8,0.7,1.9,1.2,3.8,1.4h0.1c0.5,0,0.9-0.4,1-0.9C1058.9,264,1058.5,263.6,1057.9,263.5
				L1057.9,263.5z M1041.6,276.7c-0.2,0-0.4-0.2-0.4-0.4s0.2-0.4,0.4-0.4c0.2,0,0.4,0.2,0.4,0.4
				C1041.9,276.5,1041.8,276.7,1041.6,276.7L1041.6,276.7z"/>
		</g>
	</g>
	<g id="XMLID_114_">
		<g id="XMLID_125_">
			<path id="XMLID_126_" class="st8" d="M685.6,274.3l0.4-0.4c-1.5-1.3-3.5-3.5-5.2-5.2c0.2-0.4,0.1-0.9-0.3-1.2
				c-1.8-1.2-2.5-2.1-3.3-3.1c-0.4-0.5-0.7-0.9-1.2-1.4l-0.1-0.1c-0.2-0.2-0.4-0.3-0.6-0.4c0,0-0.2-0.1-0.5-0.2
				c-0.3,0-0.5-0.1-0.5-0.1l0,0h-0.1c0,0,0,0-0.1,0H674h-0.1c-1.8,0.3-3.7,1.7-5.9,4.4c-0.3,0.4-0.3,1,0.1,1.3
				c0.2,0.1,0.4,0.2,0.6,0.2c0.3,0,0.5-0.1,0.7-0.4c0.9-1.1,1.7-1.9,2.4-2.5l-0.8,3.6c-0.1,0.5,0,1,0.3,1.4l-0.2,3.7l-1.5,4
				c-0.2,0.6,0.1,1.3,0.7,1.5c0.1,0.1,0.3,0.1,0.4,0.1c0.5,0,0.9-0.3,1.1-0.8l1.6-4.2c0-0.1,0.1-0.2,0.1-0.4l0.1-2.2l1.4,2.2
				l1.2,4.3c0.1,0.5,0.6,0.9,1.2,0.9c0.1,0,0.2,0,0.3,0c0.6-0.2,1-0.8,0.8-1.5l-1.2-4.5c0-0.1-0.1-0.2-0.1-0.3l-1.9-3.1
				c0.1-0.1,0.1-0.3,0.1-0.4l0.8-3.7c0.7,0.9,1.6,1.8,3.3,3c0.2,0.1,0.3,0.2,0.5,0.2s0.4-0.1,0.5-0.2C682,270.6,684,273,685.6,274.3
				L685.6,274.3z"/>
		</g>
		<path id="XMLID_122_" class="st8" d="M678.2,260c0,1.3-1.1,2.4-2.4,2.4c-1.3,0-2.4-1.1-2.4-2.4c0-1.3,1.1-2.4,2.4-2.4
			C677.1,257.6,678.2,258.6,678.2,260L678.2,260z"/>
		<g id="XMLID_115_">
			<path id="XMLID_119_" class="st8" d="M683.1,274.6l-0.8-0.7c-0.2-0.2-0.5-0.1-0.6,0.1c-0.2,0.2-0.1,0.5,0.1,0.6l0.9,0.7v1.9l0,0
				l-0.7,1.4c-0.1,0.2,0,0.5,0.2,0.6c0.1,0,0.1,0,0.2,0c0.2,0,0.3-0.1,0.4-0.2l0.8-1.4l0.8,1.5c0.1,0.1,0.2,0.2,0.4,0.2
				c0.1,0,0.1,0,0.2-0.1c0.2-0.1,0.3-0.4,0.2-0.6l-0.7-1.3h2.7v1.5c0,0.2,0.2,0.4,0.4,0.4s0.4-0.2,0.4-0.4v-1.6l0,0v-1.4l-2-1.2
				H683.1z"/>
			<path id="XMLID_116_" class="st8" d="M689,273.7c-0.3-0.3-0.4-0.6-0.7-0.8c-0.1,0-0.1-0.1-0.2-0.1c0,0,0,0,0-0.1s0-0.3,0-0.4
				c0-0.2,0-0.4-0.2-0.6c-0.1-0.1-0.4-0.2-0.6,0.4c0,0.1-0.1,0.3-0.1,0.4c-0.2,0.4-0.5,0.8-0.8,1.2c-0.1,0.2-0.2,0.4-0.4,0.6
				l1.9,1.1l0.4-0.4c0.1,0,0.1,0.1,0.2,0.1c0.2,0.1,0.4,0.1,0.7,0.1c0.4,0,0.8-0.2,0.8-0.7C690.1,274.1,689.1,273.8,689,273.7
				L689,273.7z"/>
		</g>
	</g>
	<path id="XMLID_113_" class="st19" d="M755.2,262.5l2.2-0.2l-1.9-5.9l-2.4,3C754.1,260.3,754.8,261.3,755.2,262.5z"/>
	<path id="XMLID_112_" class="st19" d="M749.9,263.6l-0.6,0.8c0,0.1,0.1,0.1,0.1,0.2h4.7c0-0.4-0.1-0.9-0.3-1.3L749.9,263.6z"/>
	<path id="XMLID_111_" class="st19" d="M752.2,260.7l-1.8,2.3l3.2-0.3C753.3,261.9,752.8,261.2,752.2,260.7z"/>
	<path id="XMLID_110_" class="st19" d="M748.6,263.8L748.6,263.8l-0.4-0.1C748.4,263.8,748.5,263.8,748.6,263.8z"/>
	<path id="XMLID_109_" class="st19" d="M742.3,265.1c0,3.3,2.7,5.9,5.9,5.9c2.5,0,4.6-1.5,5.5-3.6l-5.5-0.5c-1,0-1.8-0.8-1.8-1.9
		c0-1,0.8-1.8,1.8-1.9l1-0.1l2.3-3c-0.9-0.6-2.1-1-3.3-1C744.9,259.1,742.3,261.8,742.3,265.1z"/>
	<path id="XMLID_108_" class="st19" d="M748.2,266.3l5.7,0.5c0.1-0.4,0.2-0.9,0.2-1.3h-4.8C749.2,265.9,748.8,266.3,748.2,266.3z"/>
	<path id="XMLID_107_" class="st19" d="M766.6,265.1c0,3.3,2.7,5.9,5.9,5.9c3.3,0,5.9-2.7,5.9-5.9c0-3.3-2.7-5.9-5.9-5.9
		c-1.1,0-2.1,0.3-3,0.8c0.8,1.5,1.8,3,2.5,4c0.1,0,0.3-0.1,0.4-0.1c0.7,0,1.2,0.6,1.2,1.2c0,0.7-0.6,1.3-1.2,1.3
		c-0.7,0-1.2-0.6-1.2-1.3c0-0.2,0.1-0.4,0.2-0.6c-0.7-1-1.7-2.5-2.6-4C767.4,261.5,766.6,263.2,766.6,265.1z"/>
	<path id="XMLID_106_" class="st19" d="M758.4,267.2c-0.9-0.1-1.6-0.8-1.8-1.7h-0.9c0,0.5-0.1,1-0.2,1.5L758.4,267.2z"/>
	<path id="XMLID_105_" class="st19" d="M758.3,262.2h0.4l0,0c0.6,0,1.1,0.2,1.6,0.5l6.1-6.5h-10L758.3,262.2z"/>
	<path id="XMLID_104_" class="st19" d="M757.6,263.2l-0.1-0.2l-2.2,0.2c0.1,0.5,0.2,0.9,0.2,1.4h1
		C756.7,264,757.1,263.5,757.6,263.2z"/>
	<path id="XMLID_103_" class="st5" d="M755.8,254.7l-0.4-1.2c0.1,0,0.1-0.1,0.2-0.1c0.3-0.1,1.4,0,1.4,0c0.5,0,0.9,0,0.9-0.6l0,0
		c0-0.5-0.5-0.6-1-0.6c-0.7-0.1-2.6-0.3-2.9-0.3c-0.4,0-0.8,0.3-1,0.6c-0.1,0.2-0.2,0.4-0.2,0.6c0,0.7,0.4,0.9,1.3,0.9
		c0.2,0,0.4-0.1,0.6-0.1l0.4,1.1C755,254.8,755.7,254.5,755.8,254.7z"/>
	<path id="XMLID_76_" class="st5" d="M772.5,257.6c-1.3,0-2.6,0.3-3.7,1c0.1,0.3,0.3,0.5,0.4,0.8c1-0.5,2.1-0.9,3.2-0.9
		c3.6,0,6.5,2.9,6.5,6.5s-2.9,6.6-6.5,6.6s-6.5-2.9-6.5-6.6c0-2.1,1-4,2.6-5.2c-0.1-0.3-0.3-0.5-0.4-0.8c-1.8,1.4-3,3.5-3,6
		c0,4.1,3.3,7.4,7.5,7.4c4.1,0,7.4-3.3,7.4-7.4C780,261,776.6,257.6,772.5,257.6z"/>
	<path id="XMLID_75_" class="st5" d="M772.5,266.3c0.7,0,1.2-0.6,1.2-1.3s-0.6-1.2-1.2-1.2c-0.1,0-0.3,0-0.4,0.1
		c0.3,0.4,0.5,0.6,0.7,0.8s0.2,0.5,0,0.6c-0.1,0.1-0.2,0.1-0.3,0.1s-0.2,0-0.3-0.1c-0.2-0.2-0.4-0.5-0.7-0.9
		c-0.1,0.2-0.2,0.4-0.2,0.6C771.3,265.8,771.8,266.3,772.5,266.3z"/>
	<path id="XMLID_74_" class="st5" d="M749.1,264.6h0.3c0-0.1-0.1-0.1-0.1-0.2L749.1,264.6z"/>
	<path id="XMLID_73_" class="st5" d="M759.2,265.3c-0.1,0.2-0.5,0.2-0.5,0.2h-2.1c0.2,0.9,0.9,1.6,1.8,1.7l-2.9-0.2
		c0.1-0.5,0.2-1,0.2-1.5h-0.9c0,0.5-0.1,0.9-0.2,1.4l-0.6-0.1l-5.7-0.5c0.5,0,1-0.4,1.2-0.8h-1.2l0,0c-0.2,0-0.3-0.1-0.4-0.2
		c-0.1-0.2-0.1-0.3,0-0.4l0.7-1c-0.1,0-0.3-0.1-0.4-0.1h0.5l0.5-0.6l-1,0.1c-1,0-1.8,0.8-1.8,1.9c0,1,0.8,1.8,1.8,1.9l5.5,0.5
		l0.6,0.1c-1,2.4-3.3,4.2-6.1,4.2c-3.6,0-6.5-2.9-6.5-6.6c0-3.6,2.9-6.5,6.5-6.5c1.3,0,2.6,0.4,3.6,1.1l0.6-0.7
		c-1.2-0.8-2.6-1.3-4.2-1.3c-4.1,0-7.4,3.3-7.4,7.4c0,4.1,3.3,7.4,7.4,7.4c3.2,0,6-2.1,7-5l3.4,0.3l0,0l0,0l0.3,1.7h-0.2
		c-0.2,0-0.4,0.3-0.3,0.5l0,0c0,0.2,0.3,0.4,0.5,0.3l1.8-0.4c0.2,0,0.4-0.3,0.3-0.5l0,0c0-0.2-0.3-0.4-0.5-0.3l-0.7,0.1l-0.3-1.7
		c1.1-0.4,1.9-1.5,1.9-2.7c0-0.6-0.2-1.2-0.5-1.6L759.2,265.3z"/>
	<path id="XMLID_72_" class="st5" d="M756.6,264.6h1.5l-0.5-1.4C757.1,263.5,756.7,264,756.6,264.6z"/>
	<path id="XMLID_71_" class="st11" d="M769.6,259.9c0.9-0.5,1.9-0.8,3-0.8c3.3,0,5.9,2.7,5.9,5.9c0,3.3-2.7,5.9-5.9,5.9
		c-3.3,0-5.9-2.7-5.9-5.9c0-1.9,0.9-3.6,2.3-4.7c-0.1-0.2-0.2-0.4-0.3-0.5c-1.6,1.2-2.6,3.1-2.6,5.2c0,3.6,2.9,6.6,6.5,6.6
		s6.5-2.9,6.5-6.6c0-3.6-2.9-6.5-6.5-6.5c-1.2,0-2.3,0.3-3.2,0.9C769.4,259.6,769.5,259.7,769.6,259.9z"/>
	<path id="XMLID_70_" class="st11" d="M754.5,266.8c0.1-0.4,0.2-0.9,0.2-1.4h-0.6c0,0.5-0.1,0.9-0.2,1.3L754.5,266.8z"/>
	<path id="XMLID_69_" class="st11" d="M753.7,262.7l0.6-0.1c-0.4-0.9-1-1.8-1.7-2.4l-0.4,0.5C752.8,261.2,753.3,261.9,753.7,262.7z"
		/>
	<path id="XMLID_68_" class="st11" d="M753.9,263.3c0.1,0.4,0.2,0.9,0.3,1.3h0.6c0-0.5-0.1-0.9-0.2-1.4L753.9,263.3z"/>
	<path id="XMLID_67_" class="st11" d="M741.7,265.1c0,3.6,2.9,6.6,6.5,6.6c2.8,0,5.1-1.7,6.1-4.2l-0.6-0.1c-0.9,2.1-3,3.6-5.5,3.6
		c-3.3,0-5.9-2.7-5.9-5.9c0-3.3,2.7-5.9,5.9-5.9c1.2,0,2.3,0.4,3.3,1l0.4-0.5c-1-0.7-2.3-1.1-3.6-1.1
		C744.6,258.5,741.7,261.5,741.7,265.1z"/>
	<path id="XMLID_66_" class="st5" d="M767.9,254.4v-3c0-0.1-0.1-0.3-0.2-0.4c-0.1-0.1-0.3-0.1-0.4-0.1l-1.7,0.2
		c-0.1-0.1-0.2-0.1-0.4-0.1l-2.3,0.1c-0.3,0-0.6,0.3-0.6,0.6s0.2,0.5,0.4,0.6c0.1,0,0.1,0,0.2,0l2.3-0.1c0.1,0,0.3-0.1,0.4-0.2
		l1.4-0.1v2.9l0,0c0-0.3,0-0.5,0-0.5C767,254.2,767.8,254.2,767.9,254.4z"/>
	<path id="XMLID_62_" class="st11" d="M768.8,260.4c0.9,1.6,1.9,3.1,2.6,4c0.3,0.4,0.5,0.7,0.7,0.9c0.1,0.1,0.2,0.1,0.3,0.1
		s0.2,0,0.3-0.1c0.2-0.2,0.2-0.5,0-0.6c-0.2-0.2-0.4-0.4-0.7-0.8c-0.7-0.9-1.7-2.5-2.5-4c-0.1-0.2-0.2-0.4-0.3-0.5
		c-0.1-0.3-0.3-0.5-0.4-0.8c-0.5-1-0.9-2-1-2.6c0-0.1,0-0.2,0-0.3c0-0.4,0-1.2,0-1.2l0,0c-0.1-0.2-0.9-0.2-0.9,0c0,0,0,0.2,0,0.5
		c0,0.2,0,0.3,0,0.5H756l-0.2-0.7l0,0c-0.2-0.1-0.8,0.1-0.8,0.3l0,0l0.1,0.4c0,0-0.1,0-0.1,0.1l-2.6,3.4l-0.6,0.7l-0.4,0.5l-2.3,3
		l-0.5,0.6l-0.1,0.1l-0.7,1c-0.1,0.1-0.1,0.3,0,0.4c0.1,0.2,0.2,0.2,0.4,0.2l0,0h1.2h4.8h0.6h0.9h0.9h2.1c0,0,0.4,0,0.5-0.2l1.7-1.9
		l6.2-6.6c0.2,0.7,0.5,1.5,1,2.3c0.1,0.3,0.3,0.5,0.4,0.8C768.6,260.1,768.7,260.2,768.8,260.4z M756.6,264.6h-1h-0.9h-0.6h-4.7
		h-0.3l0.2-0.2l0.6-0.8l0.5-0.7l1.8-2.3l0.4-0.5l0.6-0.7l2.4-3l1.9,5.9l0.2,0.7l0.1,0.2l0.5,1.4L756.6,264.6z M760.3,262.7l-1.4,1.5
		l-0.6-1.9l-1.9-6h10L760.3,262.7z"/>
	<path id="XMLID_61_" class="st5" d="M757.6,263l-0.2-0.7l-2.2,0.2c-0.4-1.2-1.2-2.2-2.1-3l-0.6,0.7c0.7,0.7,1.3,1.5,1.7,2.4
		l-0.6,0.1l-3.2,0.3l-0.5,0.7l4-0.3l0.6-0.1c0.1,0.4,0.2,0.9,0.2,1.4h0.9c0-0.5-0.1-1-0.2-1.4L757.6,263z"/>
	<path id="XMLID_60_" class="st5" d="M758.7,262.2h-0.4l0.6,1.9l1.4-1.5C759.8,262.4,759.3,262.2,758.7,262.2L758.7,262.2z"/>
	<path id="XMLID_14_" class="st16" d="M1751.3,262.7c2.6,0,5,1,6.8,2.7c2.3-3.7,6.5-6.2,11.2-6.2c7.3,0,13.2,5.9,13.2,13.2h-41
		C1741.5,267.1,1745.9,262.7,1751.3,262.7z"/>
	<path id="XMLID_33_" class="st16" d="M1788.6,262.7c2.6,0,5,1,6.8,2.7c2.3-3.7,6.5-6.2,11.2-6.2c7.3,0,13.2,5.9,13.2,13.2h-41
		C1778.7,267.1,1783.1,262.7,1788.6,262.7z"/>
	<rect id="XMLID_278_" x="1568.9" y="150.4" class="st1" width="81.6" height="121.7"/>
	<rect id="XMLID_277_" x="1573.6" y="113" class="st6" width="72.2" height="32.7"/>
	<polygon id="XMLID_276_" class="st5" points="1568.9,145.7 1568.9,109.2 1573.6,109.2 1573.6,145.7 1645.9,145.7 1645.9,109.2 
		1650.6,109.2 1650.6,145.7 1650.6,145.7 1650.6,150.4 1568.9,150.4 	"/>
	<rect id="XMLID_274_" x="1590.1" y="103.4" class="st5" width="8.9" height="24.1"/>
	<path id="XMLID_272_" class="st6" d="M1613,186.2h10.6v-20.3c0-2.9-2.4-5.3-5.3-5.3l0,0c-2.9,0-5.3,2.4-5.3,5.3L1613,186.2
		L1613,186.2z"/>
	<path id="XMLID_263_" class="st6" d="M1595.8,186.2h10.6v-20.3c0-2.9-2.4-5.3-5.3-5.3l0,0c-2.9,0-5.3,2.4-5.3,5.3L1595.8,186.2
		L1595.8,186.2z"/>
	<path id="XMLID_262_" class="st6" d="M1578.7,186.2h10.6v-20.3c0-2.9-2.4-5.3-5.3-5.3l0,0c-2.9,0-5.3,2.4-5.3,5.3L1578.7,186.2
		L1578.7,186.2z"/>
	<path id="XMLID_258_" class="st6" d="M1613,223.4h10.6v-20.3c0-2.9-2.4-5.3-5.3-5.3l0,0c-2.9,0-5.3,2.4-5.3,5.3L1613,223.4
		L1613,223.4z"/>
	<path id="XMLID_257_" class="st6" d="M1595.8,223.4h10.6v-20.3c0-2.9-2.4-5.3-5.3-5.3l0,0c-2.9,0-5.3,2.4-5.3,5.3L1595.8,223.4
		L1595.8,223.4z"/>
	<path id="XMLID_256_" class="st6" d="M1578.7,223.4h10.6v-20.3c0-2.9-2.4-5.3-5.3-5.3l0,0c-2.9,0-5.3,2.4-5.3,5.3L1578.7,223.4
		L1578.7,223.4z"/>
	<path id="XMLID_235_" class="st6" d="M1613,260.7h10.6v-20.3c0-2.9-2.4-5.3-5.3-5.3l0,0c-2.9,0-5.3,2.4-5.3,5.3L1613,260.7
		L1613,260.7z"/>
	<path id="XMLID_234_" class="st6" d="M1595.8,260.7h10.6v-20.3c0-2.9-2.4-5.3-5.3-5.3l0,0c-2.9,0-5.3,2.4-5.3,5.3L1595.8,260.7
		L1595.8,260.7z"/>
	<path id="XMLID_229_" class="st6" d="M1578.7,260.7h10.6v-20.3c0-2.9-2.4-5.3-5.3-5.3l0,0c-2.9,0-5.3,2.4-5.3,5.3L1578.7,260.7
		L1578.7,260.7z"/>
	<polygon id="XMLID_228_" class="st9" points="1711.8,149.8 1711.8,113 1630.2,113 1630.2,235.3 1630.2,235.3 1630.2,272.1 
		1711.8,272.1 	"/>
	<rect id="XMLID_219_" x="1639.9" y="235.1" class="st10" width="10.6" height="20.3"/>
	<rect id="XMLID_218_" x="1657.1" y="235.1" class="st10" width="10.6" height="20.3"/>
	<rect id="XMLID_210_" x="1674.3" y="235.1" class="st10" width="10.6" height="20.3"/>
	<rect id="XMLID_209_" x="1691.5" y="235.1" class="st10" width="10.6" height="20.3"/>
	<rect id="XMLID_208_" x="1634.9" y="76.4" class="st10" width="72.2" height="32.7"/>
	<rect id="XMLID_207_" x="1684.4" y="66.7" class="st11" width="4.4" height="24.1"/>
	<rect id="XMLID_205_" x="1692.4" y="66.7" class="st11" width="4.4" height="24.1"/>
	<path id="XMLID_201_" class="st10" d="M1691.5,149.5h10.6v-20.3c0-2.9-2.4-5.3-5.3-5.3l0,0c-2.9,0-5.3,2.4-5.3,5.3L1691.5,149.5
		L1691.5,149.5z"/>
	<path id="XMLID_200_" class="st10" d="M1674.3,149.5h10.6v-20.3c0-2.9-2.4-5.3-5.3-5.3l0,0c-2.9,0-5.3,2.4-5.3,5.3L1674.3,149.5
		L1674.3,149.5z"/>
	<path id="XMLID_196_" class="st10" d="M1657.1,149.5h10.6v-20.3c0-2.9-2.4-5.3-5.3-5.3l0,0c-2.9,0-5.3,2.4-5.3,5.3L1657.1,149.5
		L1657.1,149.5z"/>
	<path id="XMLID_195_" class="st10" d="M1639.9,149.5h10.6v-20.3c0-2.9-2.4-5.3-5.3-5.3l0,0c-2.9,0-5.3,2.4-5.3,5.3L1639.9,149.5
		L1639.9,149.5z"/>
	<path id="XMLID_147_" class="st10" d="M1691.5,186.8h10.6v-20.3c0-2.9-2.4-5.3-5.3-5.3l0,0c-2.9,0-5.3,2.4-5.3,5.3L1691.5,186.8
		L1691.5,186.8z"/>
	<path id="XMLID_145_" class="st10" d="M1674.3,186.8h10.6v-20.3c0-2.9-2.4-5.3-5.3-5.3l0,0c-2.9,0-5.3,2.4-5.3,5.3L1674.3,186.8
		L1674.3,186.8z"/>
	<path id="XMLID_144_" class="st10" d="M1657.1,186.8h10.6v-20.3c0-2.9-2.4-5.3-5.3-5.3l0,0c-2.9,0-5.3,2.4-5.3,5.3L1657.1,186.8
		L1657.1,186.8z"/>
	<path id="XMLID_142_" class="st10" d="M1639.9,186.8h10.6v-20.3c0-2.9-2.4-5.3-5.3-5.3l0,0c-2.9,0-5.3,2.4-5.3,5.3L1639.9,186.8
		L1639.9,186.8z"/>
	<path id="XMLID_141_" class="st10" d="M1689.9,220.7h10.6v-20.3c0-2.9-2.4-5.3-5.3-5.3l0,0c-2.9,0-5.3,2.4-5.3,5.3L1689.9,220.7
		L1689.9,220.7z"/>
	<path id="XMLID_59_" class="st10" d="M1672.7,220.7h10.6v-20.3c0-2.9-2.4-5.3-5.3-5.3l0,0c-2.9,0-5.3,2.4-5.3,5.3L1672.7,220.7
		L1672.7,220.7z"/>
	<path id="XMLID_58_" class="st10" d="M1655.5,220.7h10.6v-20.3c0-2.9-2.4-5.3-5.3-5.3l0,0c-2.9,0-5.3,2.4-5.3,5.3L1655.5,220.7
		L1655.5,220.7z"/>
	<path id="XMLID_45_" class="st10" d="M1638.3,220.7h10.6v-20.3c0-2.9-2.4-5.3-5.3-5.3l0,0c-2.9,0-5.3,2.4-5.3,5.3L1638.3,220.7
		L1638.3,220.7z"/>
	<rect id="XMLID_43_" x="1630.8" y="260.5" class="st10" width="81.3" height="11.7"/>
	<polygon id="XMLID_279_" class="st11" points="1630.2,108.6 1630.2,72.1 1634.9,72.1 1634.9,108.6 1707.2,108.6 1707.2,72.1 
		1711.9,72.1 1711.9,108.6 1711.8,108.6 1711.8,113.3 1630.2,113.3 	"/>
	<ellipse id="XMLID_619_" class="st16" cx="1210.2" cy="238.6" rx="15.8" ry="15.8"/>
	<rect id="XMLID_614_" x="1208.1" y="245.5" class="st17" width="4.2" height="27.8"/>
	<circle id="XMLID_574_" class="st16" cx="1192.4" cy="244.1" r="13.3"/>
	<rect id="XMLID_551_" x="1190.6" y="249.9" class="st17" width="3.5" height="23.4"/>
	<path id="XMLID_550_" class="st16" d="M1196.5,263.5c2.6,0,5,1,6.8,2.7c2.3-3.7,6.5-6.2,11.2-6.2c7.3,0,13.2,5.9,13.2,13.2h-41
		C1186.7,267.9,1191.1,263.5,1196.5,263.5z"/>
	<g>
		<polygon id="XMLID_544_" class="st5" points="1908.5,229.7 1911.5,229.7 1929.2,203.8 1926.2,203.8 		"/>
		<path id="XMLID_543_" class="st5" d="M1923.3,261.1h-9.6v-17.5c0-2.7,2.1-4.8,4.8-4.8l0,0c2.7,0,4.8,2.1,4.8,4.8L1923.3,261.1
			L1923.3,261.1z"/>
		<rect id="XMLID_542_" x="1851.5" y="187.7" class="st8" width="81.6" height="84.7"/>
		<rect id="XMLID_541_" x="1851.5" y="187.1" class="st12" width="81.6" height="85.3"/>
		<rect id="XMLID_359_" x="1856.2" y="150.3" class="st13" width="72.2" height="32.7"/>
		<polygon id="XMLID_358_" class="st14" points="1851.5,183 1851.5,146.5 1856.2,146.5 1856.2,183 1928.4,183 1928.4,146.5 
			1933.1,146.5 1933.1,183 1933.1,183 1933.1,187.7 1851.4,187.7 1851.4,183 		"/>
		<rect id="XMLID_357_" x="1902.1" y="140.7" class="st14" width="8.9" height="24.1"/>
		<path id="XMLID_356_" class="st13" d="M1912.7,223.5h10.6v-20.3c0-2.9-2.4-5.3-5.3-5.3l0,0c-2.9,0-5.3,2.4-5.3,5.3L1912.7,223.5
			L1912.7,223.5z"/>
		<path id="XMLID_355_" class="st13" d="M1895.5,223.5h10.6v-20.3c0-2.9-2.4-5.3-5.3-5.3l0,0c-2.9,0-5.3,2.4-5.3,5.3L1895.5,223.5
			L1895.5,223.5z"/>
		<path id="XMLID_354_" class="st13" d="M1878.4,223.5h10.6v-20.3c0-2.9-2.4-5.3-5.3-5.3l0,0c-2.9,0-5.3,2.4-5.3,5.3L1878.4,223.5
			L1878.4,223.5z"/>
		<path id="XMLID_353_" class="st13" d="M1912.7,260.7h10.6v-20.3c0-2.9-2.4-5.3-5.3-5.3l0,0c-2.9,0-5.3,2.4-5.3,5.3L1912.7,260.7
			L1912.7,260.7z"/>
		<path id="XMLID_352_" class="st13" d="M1895.5,260.7h10.6v-20.3c0-2.9-2.4-5.3-5.3-5.3l0,0c-2.9,0-5.3,2.4-5.3,5.3L1895.5,260.7
			L1895.5,260.7z"/>
		<path id="XMLID_332_" class="st13" d="M1878.4,260.7h10.6v-20.3c0-2.9-2.4-5.3-5.3-5.3l0,0c-2.9,0-5.3,2.4-5.3,5.3L1878.4,260.7
			L1878.4,260.7z"/>
		<path id="XMLID_622_" class="st13" d="M1860.5,224.2h10.6v-20.3c0-2.9-2.4-5.3-5.3-5.3l0,0c-2.9,0-5.3,2.4-5.3,5.3L1860.5,224.2
			L1860.5,224.2z"/>
		<path id="XMLID_621_" class="st13" d="M1860.5,261.5h10.6v-20.3c0-2.9-2.4-5.3-5.3-5.3l0,0c-2.9,0-5.3,2.4-5.3,5.3L1860.5,261.5
			L1860.5,261.5z"/>
	</g>
</g>
</svg>
